<svg xmlns="http://www.w3.org/2000/svg" xmlns:xlink="http://www.w3.org/1999/xlink" width="500" zoomAndPan="magnify" viewBox="0 0 375 374.999991" height="500" preserveAspectRatio="xMidYMid meet" version="1.0"><defs><g/></defs><g fill="#ffffff" fill-opacity="1"><g transform="translate(39.02265, 243.539036)"><g><path d="M 50.609375 1.183594 C 50.078125 0.984375 49.828125 1.011719 49.574219 1.035156 L 50.027344 0.480469 C 51.011719 0.125 51.742188 -0.207031 52.699219 -0.8125 C 54.917969 -1.550781 57.390625 -2.316406 59.332031 -3.28125 C 60.316406 -3.636719 61.296875 -3.992188 62.308594 -4.09375 C 64.777344 -4.859375 67.050781 -5.089844 69.242188 -6.082031 C 73.804688 -8.84375 78.773438 -10.117188 83.136719 -12.351562 C 86.085938 -13.417969 88.757812 -14.710938 90.769531 -17.46875 L 92.433594 -18.65625 L 92.660156 -18.9375 C 92.859375 -19.46875 92.582031 -19.695312 91.773438 -20.121094 C 93.964844 -21.109375 95.429688 -21.769531 96.613281 -22.65625 L 97.621094 -22.761719 C 100.871094 -25.898438 104.421875 -28.558594 106.582031 -32.347656 C 107.035156 -32.90625 107.714844 -33.738281 107.914062 -34.269531 C 108.160156 -36.84375 109.441406 -39.273438 111.230469 -41.75 C 111.753906 -44.097656 112.859375 -45.742188 113.6875 -47.613281 C 114.289062 -49.203125 115.117188 -51.074219 115.464844 -52.640625 C 116.863281 -58.902344 114.859375 -63.542969 112.652344 -67.648438 C 110.496094 -71.253906 107.410156 -73.996094 105.03125 -77.324219 C 104.421875 -78.28125 104.015625 -79.769531 103.207031 -80.195312 C 102.144531 -80.597656 100.65625 -80.1875 99.089844 -80.539062 C 98.308594 -80.714844 97.726562 -81.417969 96.941406 -81.59375 C 93.027344 -82.464844 88.914062 -82.808594 84.746094 -83.65625 C 83.15625 -84.257812 81.640625 -84.105469 79.824219 -84.425781 C 79.796875 -84.679688 79.796875 -84.679688 79.492188 -85.160156 C 80.222656 -85.488281 80.957031 -85.816406 81.410156 -86.375 L 80.070312 -87.003906 L 80.296875 -87.28125 C 81.304688 -87.382812 82.742188 -88.296875 83.75 -88.398438 C 82.714844 -88.546875 81.730469 -88.191406 80.445312 -88.316406 C 80.671875 -88.59375 80.644531 -88.847656 80.621094 -89.097656 L 84.5 -91.027344 C 85.460938 -91.636719 86.441406 -91.992188 87.425781 -92.347656 L 98.917969 -99.644531 C 101.058594 -101.140625 102.722656 -102.328125 104.359375 -103.773438 L 107.433594 -106.128906 C 110.503906 -108.484375 112.515625 -111.238281 114.226562 -114.472656 L 116.535156 -119.300781 C 118.949219 -123.117188 120.578125 -127.109375 120.722656 -130.695312 C 121.746094 -145.589844 116.777344 -154.257812 103.796875 -156.496094 C 99.152344 -157.042969 93.824219 -156.75 88.527344 -156.207031 C 80.453125 -155.378906 72.855469 -154.855469 64.859375 -153.269531 C 51.414062 -150.105469 37.847656 -145.65625 24.273438 -143.753906 C 23.035156 -143.371094 21.851562 -142.484375 20.695312 -141.347656 C 19.839844 -139.726562 18.253906 -137.78125 17.652344 -136.1875 C 13.964844 -127.394531 14.96875 -120.105469 16.625 -113.898438 C 16.980469 -112.917969 17.585938 -111.957031 18.597656 -112.0625 C 20.390625 -111.992188 22.710938 -111.71875 24.929688 -112.457031 C 33.816406 -112.859375 35.285156 -110.96875 33.910156 -104.453125 C 32.496094 -95.894531 28.527344 -87.328125 25.847656 -78.636719 C 24.621094 -75.707031 24.394531 -75.429688 21.871094 -75.167969 C 18.867188 -74.605469 16.066406 -74.574219 12.8125 -73.984375 C 11 -71.761719 10.277344 -68.878906 10.535156 -66.355469 C 10.011719 -64.007812 10.242188 -61.738281 10.703125 -59.746094 C 10.308594 -56.132812 11.574219 -53.714844 14.734375 -52.761719 L 16.628906 -51.683594 C 17.386719 -51.761719 17.691406 -51.28125 17.0625 -49.941406 C 16.617188 -46.835938 15.664062 -43.679688 14.738281 -40.269531 C 11.601562 -33.574219 12.34375 -18.859375 -2.550781 -19.882812 C -5.828125 -19.546875 -9.136719 -19.460938 -12.46875 -19.628906 C -14.261719 -19.703125 -16.027344 -19.519531 -17.941406 -18.304688 C -19.65625 -17.617188 -21.546875 -16.148438 -22.574219 -13.75 C -23.148438 -11.90625 -24.179688 -9.503906 -25.789062 -7.808594 C -27.75 -4.550781 -28.222656 -1.695312 -28.722656 0.90625 C -29.394531 4.289062 -30.34375 7.445312 -31.523438 10.882812 C -32.019531 13.484375 -32.824219 15.605469 -33.347656 17.953125 C -33.820312 20.808594 -32.203125 21.660156 -29.503906 20.621094 C -27.988281 20.464844 -26.527344 19.804688 -25.265625 19.675781 C -22.996094 19.441406 -20.019531 18.628906 -17.574219 17.613281 C -13.839844 16.71875 -10.636719 15.625 -7.128906 15.011719 C -5.113281 14.804688 -3.269531 15.378906 -1.222656 15.425781 C 0.265625 15.015625 1.605469 15.644531 1.480469 16.933594 C 1.664062 18.699219 2.496094 19.378906 4.035156 19.476562 C 5.523438 19.066406 7.089844 19.417969 8.101562 19.3125 C 10.144531 19.359375 12.941406 16.777344 13.96875 14.375 C 13.917969 13.871094 14.117188 13.339844 13.8125 12.863281 C 14.5625 10.234375 14.5625 10.234375 17.261719 9.195312 C 19.457031 8.203125 21.699219 7.71875 24.09375 6.199219 C 27.949219 4.019531 31.054688 4.464844 34.789062 3.570312 C 37.289062 3.0625 39.835938 3.054688 42.484375 1.507812 C 44.929688 0.492188 46.945312 0.285156 47.859375 1.722656 C 48.414062 2.175781 49.449219 2.324219 50.609375 1.183594 Z M 38.53125 -24.605469 C 28.539062 -22.5625 22.039062 -18.835938 25.710938 -32.726562 C 30.175781 -43.894531 26.671875 -53.222656 42.414062 -56.367188 C 45.109375 -57.410156 47.835938 -58.199219 50.304688 -58.960938 C 53.03125 -59.75 54.996094 -60.460938 57.519531 -60.722656 C 61 -61.589844 64.28125 -61.925781 67.511719 -62.765625 C 70.285156 -63.050781 72.835938 -63.054688 75.664062 -62.835938 C 78.742188 -62.640625 82.527344 -63.03125 86.035156 -63.644531 C 86.566406 -63.445312 87.296875 -63.773438 87.800781 -63.828125 C 89.089844 -63.703125 90.550781 -64.363281 90.855469 -63.882812 C 93.585938 -62.125 96.542969 -60.644531 97.183594 -56.882812 C 97.207031 -56.632812 97.488281 -56.40625 97.511719 -56.152344 C 100.242188 -54.390625 100.351562 -50.832031 100.914062 -47.832031 C 101.679688 -45.359375 100.574219 -43.71875 97.421875 -42.117188 L 75.332031 -33.734375 C 69.960938 -31.398438 65.296875 -29.644531 60.277344 -28.875 L 47.03125 -26.242188 C 44.054688 -25.425781 41.28125 -25.140625 38.53125 -24.605469 Z M 47.691406 -84.445312 C 30.183594 -71.175781 47.609375 -117.585938 57.015625 -120.335938 C 60.976562 -121.507812 65.214844 -122.453125 69.652344 -123.925781 C 70.382812 -124.257812 71.191406 -123.832031 72.203125 -123.933594 C 73.160156 -124.542969 75.101562 -125.507812 75.378906 -125.28125 C 76.011719 -124.070312 77.398438 -125.488281 78.207031 -125.058594 C 78.484375 -124.832031 78.988281 -124.886719 79.191406 -125.414062 C 82.566406 -127.292969 85.34375 -127.578125 87.238281 -126.496094 C 87.742188 -126.546875 88.222656 -126.851562 88.980469 -126.929688 C 93.921875 -128.457031 98.1875 -129.148438 101.847656 -128.25 C 104.398438 -128.253906 106.320312 -126.921875 108.1875 -126.09375 C 108.71875 -125.894531 108.769531 -125.390625 109.328125 -124.9375 C 112.257812 -123.707031 111.410156 -119.539062 107.632812 -116.601562 C 100.832031 -110.804688 93.625 -106.496094 86.390625 -102.441406 C 73.535156 -96.023438 60.652344 -89.855469 47.691406 -84.445312 Z M 73.722656 -151.375 L 73.699219 -151.625 C 74.960938 -151.753906 75.96875 -151.859375 77.179688 -152.492188 C 85 -153.296875 93.050781 -154.375 100.976562 -154.167969 C 102.238281 -154.296875 103.296875 -153.898438 103.90625 -152.9375 Z M 102.273438 -59.445312 C 104.222656 -57.859375 106 -52.941406 105.074219 -49.535156 C 104.242188 -50.210938 103.457031 -50.386719 103.152344 -50.867188 C 102.085938 -53.816406 101.195312 -57.550781 102.273438 -59.445312 Z M 60.257812 -6.6875 C 58.695312 -4.488281 57.433594 -4.359375 55.363281 -4.65625 C 57.28125 -5.875 58.238281 -6.480469 60.257812 -6.6875 Z M 71.554688 -10.90625 C 72.535156 -11.261719 73.546875 -11.367188 74.503906 -11.976562 C 74.53125 -11.722656 74.554688 -11.46875 74.328125 -11.191406 C 73.371094 -10.582031 72.363281 -10.480469 71.378906 -10.125 C 71.351562 -10.375 71.328125 -10.628906 71.554688 -10.90625 Z M 67.851562 -7.214844 C 69.089844 -7.59375 70.296875 -8.230469 71.761719 -8.890625 C 69.921875 -6.914062 69.921875 -6.914062 67.851562 -7.214844 Z M 67.851562 -7.214844 "/></g></g></g><g fill="#ffffff" fill-opacity="1"><g transform="translate(177.050052, 229.384857)"><g><path d="M 14.707031 -132.574219 C 14.933594 -132.851562 8.988281 -128.671875 8.988281 -128.671875 C 9.519531 -128.46875 9.304688 -123.09375 9.8125 -123.144531 C 22.285156 -120.855469 27.746094 -127.28125 24.9375 -109.90625 C 24.167969 -104.984375 24.542969 -106.296875 23.800781 -101.121094 C 23.300781 -98.519531 23.8125 -96.023438 23.566406 -93.449219 C 23.292969 -91.125 23.753906 -89.132812 22.976562 -86.757812 C 21.574219 -83.042969 21.378906 -79.964844 20.730469 -76.328125 C 20.164062 -71.933594 19.617188 -67.289062 16.828125 -62.15625 C 16.152344 -61.324219 16 -60.289062 15.546875 -59.730469 C 13.871094 -53.695312 13.101562 -48.773438 12.636719 -43.367188 C 11.789062 -39.203125 10.96875 -34.78125 9.894531 -30.339844 L 8.585938 -28.164062 C 7.175781 -27 5.992188 -26.113281 4.53125 -25.453125 C 1.351562 -24.109375 -1.597656 -23.039062 -4.75 -21.441406 C -7.898438 -19.84375 -11.277344 -17.96875 -14.375 -15.863281 C -15.109375 -15.535156 -16.011719 -14.421875 -16.414062 -13.359375 L -20.058594 -6.613281 C -22.113281 -1.8125 -21.90625 0.207031 -18.21875 1.359375 C -16.878906 1.984375 -15.820312 2.386719 -14.054688 2.207031 C -8.554688 1.132812 -3.253906 0.589844 1.714844 -0.6875 C 7.945312 -2.089844 14.628906 -4.050781 21.085938 -5.730469 L 37.003906 -9.660156 C 40.230469 -10.5 42.527344 -10.480469 43.945312 -9.097656 C 44.832031 -7.914062 46.519531 -8.851562 48.460938 -9.8125 C 49.898438 -10.726562 50.578125 -11.5625 49.941406 -12.769531 C 49.257812 -14.484375 49.808594 -16.582031 51.566406 -19.3125 C 51.996094 -20.121094 52.089844 -21.660156 52.492188 -22.722656 C 52.992188 -25.324219 54.195312 -28.507812 53.203125 -30.699219 C 52.898438 -31.179688 53.277344 -32.492188 53.675781 -33.554688 C 51.207031 -32.789062 51.753906 -34.886719 51.574219 -36.652344 C 49.023438 -36.644531 45.691406 -36.8125 42.4375 -36.226562 C 28.59375 -32 35.917969 -50.089844 38.089844 -58.730469 L 41.910156 -76.203125 C 42.582031 -79.589844 42.523438 -82.640625 42.96875 -85.746094 L 47.164062 -114.480469 C 48.109375 -120.1875 48.585938 -120.492188 49.304688 -125.921875 C 51.757812 -134.332031 64.25 -134.339844 71.535156 -137.890625 C 71.859375 -139.707031 72.605469 -144.882812 71.289062 -145.257812 C 69.949219 -145.886719 69.769531 -147.652344 69.867188 -149.191406 C 70.332031 -154.597656 67.5 -157.363281 62.855469 -157.910156 C 59.191406 -158.808594 54.421875 -158.0625 49.757812 -156.3125 C 42.144531 -153.488281 35.007812 -150.972656 27.695312 -147.671875 C 24.011719 -146.277344 19.976562 -145.863281 16.046875 -141.890625 C 15.976562 -140.097656 15.148438 -138.226562 13.035156 -136.480469 C 12.582031 -135.925781 12.40625 -135.140625 11.699219 -134.558594 C 10.871094 -132.6875 16.015625 -134.746094 14.707031 -132.574219 Z M -7.578125 -1.773438 C -6.496094 -3.667969 -5.007812 -4.078125 -3.773438 -4.457031 C 1.222656 -5.480469 7.175781 -7.109375 12.925781 -8.210938 C 15.148438 -8.949219 17.140625 -9.40625 19.535156 -10.925781 C 20.238281 -11.511719 20.742188 -11.5625 21.472656 -11.890625 C 24.703125 -12.734375 27.707031 -13.296875 30.65625 -14.363281 C 32.144531 -14.769531 33.355469 -15.40625 34.519531 -13.996094 L 27.78125 -12.539062 C 28.84375 -12.136719 30.304688 -12.796875 31.566406 -12.925781 C 33.054688 -13.335938 34.542969 -13.742188 35.832031 -13.617188 C 37.09375 -13.75 38.382812 -13.625 40.148438 -13.804688 C 37.578125 -11.503906 36.519531 -11.90625 34.324219 -10.914062 C 32.332031 -10.457031 30.539062 -10.527344 28.597656 -9.5625 C 26.203125 -8.042969 23.707031 -7.53125 21.511719 -6.539062 C 19.042969 -5.777344 16.292969 -5.242188 13.792969 -4.730469 L 0.574219 -1.84375 C -1.949219 -1.585938 -4.246094 -1.605469 -6.769531 -1.347656 Z M 51.324219 -136.070312 C 49.582031 -135.640625 49.253906 -136.371094 49.878906 -137.710938 C 53.40625 -140.621094 55.101562 -139.007812 58.183594 -138.816406 Z M 20.449219 -128.828125 C 20.675781 -129.105469 20.675781 -129.105469 20.648438 -129.355469 C 21.128906 -129.660156 21.632812 -129.710938 22.136719 -129.765625 C 22.617188 -130.070312 22.867188 -130.09375 23.371094 -130.144531 L 23.425781 -129.640625 Z M 20.449219 -128.828125 "/></g></g></g><g fill="#ffffff" fill-opacity="1"><g transform="translate(264.610403, 220.405879)"><g><path d="M 15.679688 -128.082031 C 13.390625 -125.550781 11.679688 -122.316406 9.71875 -119.054688 C 10.476562 -119.132812 10.730469 -119.160156 11.261719 -118.960938 C 10.378906 -117.59375 10.003906 -116.28125 9.074219 -115.421875 C 8.167969 -114.308594 7.894531 -111.984375 5.851562 -112.03125 C 5.023438 -110.160156 1.847656 -108.816406 3.164062 -105.890625 C 3.191406 -105.636719 2.789062 -104.578125 2.589844 -104.046875 C 0.960938 -100.054688 -1.148438 -95.757812 -3.058594 -91.992188 C -5.621094 -87.140625 -7.679688 -82.339844 -9.960938 -77.261719 C -11.21875 -74.582031 -12.726562 -71.875 -13.726562 -69.222656 C -14.707031 -66.320312 -15.378906 -62.933594 -16.355469 -60.03125 C -18.710938 -53.160156 -21.066406 -46.289062 -21.578125 -38.839844 C -22.082031 -38.789062 -22.585938 -38.738281 -23.292969 -38.15625 C -22.484375 -37.726562 -21.726562 -37.804688 -20.941406 -37.628906 C -20.4375 -37.683594 -19.90625 -37.480469 -19.351562 -37.027344 C -18.386719 -35.085938 -16.640625 -32.972656 -15.425781 -31.058594 C -14.691406 -31.386719 -13.960938 -31.714844 -13.710938 -31.742188 L -8.5 -18.253906 C -10.066406 -18.601562 -11.378906 -18.976562 -12.667969 -19.101562 C -11.832031 -18.421875 -11.503906 -17.691406 -10.921875 -16.984375 C -10.644531 -16.757812 -10.363281 -16.53125 -10.113281 -16.558594 C -8.320312 -16.484375 -8.320312 -16.484375 -8.871094 -14.390625 C -9.375 -14.339844 -9.628906 -14.3125 -10.15625 -14.511719 C -9.574219 -13.808594 -8.820312 -13.886719 -8.035156 -13.710938 C -7.503906 -13.507812 -6.949219 -13.058594 -6.949219 -13.058594 C -7.273438 -11.238281 -5.707031 -10.890625 -4.394531 -10.515625 C 3.667969 -6.496094 11.730469 -2.476562 20.699219 0.425781 C 24.664062 1.804688 29.003906 1.871094 32.863281 -0.308594 C 35.558594 -1.351562 37.902344 -3.375 40.574219 -4.671875 C 42.992188 -5.9375 45.082031 -7.9375 47.148438 -10.191406 C 49.691406 -12.746094 52.5625 -14.570312 54.246094 -18.058594 C 55.152344 -19.171875 56.285156 -20.5625 57.796875 -20.714844 C 58.230469 -18.976562 58.640625 -17.488281 58.515625 -16.199219 C 58.523438 -13.652344 59.234375 -11.683594 60.675781 -10.046875 C 59.582031 -13.25 59.167969 -17.289062 60.449219 -19.714844 L 62.722656 -10 L 60.957031 -9.820312 C 61.816406 -8.890625 62.875 -8.488281 63.433594 -8.035156 C 67.355469 -4.613281 71.574219 -3.257812 75.941406 -2.941406 C 76.820312 -4.308594 77.167969 -5.875 77.421875 -5.898438 C 78.9375 -6.054688 79.058594 -7.34375 79.207031 -8.378906 C 79.179688 -8.628906 79.609375 -9.4375 80.085938 -9.742188 C 80.441406 -8.757812 80.746094 -8.28125 81.328125 -7.574219 L 79.53125 -20.140625 C 79.480469 -20.644531 79.453125 -20.898438 79.175781 -21.125 C 77.882812 -23.796875 78.582031 -26.925781 78.546875 -29.730469 C 78.488281 -32.78125 79.164062 -36.167969 79.582031 -39.523438 C 79.785156 -40.054688 79.730469 -40.558594 79.957031 -40.839844 C 80.484375 -43.1875 81.257812 -45.5625 82.289062 -47.960938 C 82.460938 -48.746094 83.089844 -50.082031 83.820312 -50.414062 C 85.789062 -51.125 87.574219 -53.601562 90.148438 -53.359375 C 90.425781 -53.132812 90.90625 -53.433594 91.132812 -53.714844 C 92.265625 -55.105469 93.023438 -55.183594 94.285156 -55.3125 L 99.785156 -56.386719 C 100.261719 -56.6875 100.714844 -57.246094 101.445312 -57.574219 L 98.96875 -59.363281 C 100.605469 -60.804688 102.476562 -59.976562 103.476562 -62.628906 C 101.027344 -64.164062 104.175781 -65.761719 103.96875 -67.777344 L 101.96875 -69.867188 C 100.023438 -71.453125 96.867188 -72.40625 95.34375 -74.800781 C 93.824219 -77.195312 92.363281 -76.535156 90.394531 -75.820312 C 89.664062 -75.492188 88.65625 -75.386719 87.898438 -75.3125 L 82.652344 -74.261719 C 84.269531 -73.410156 85.828125 -75.609375 86.566406 -73.390625 C 84.292969 -73.15625 82.300781 -72.695312 80.003906 -72.714844 C 73.445312 -72.042969 66.351562 -71.570312 60.019531 -71.175781 C 57.746094 -70.945312 55.753906 -70.484375 54.136719 -71.339844 C 53.074219 -71.738281 52.066406 -71.636719 51.058594 -71.53125 C 49.316406 -71.097656 49.542969 -71.378906 47.117188 -72.660156 C 45.5 -73.511719 43.125 -74.289062 41.28125 -74.863281 C 41.027344 -74.839844 40.800781 -74.5625 40.296875 -74.507812 C 40.402344 -73.5 40.226562 -72.71875 40.304688 -71.960938 C 39.574219 -71.628906 39.121094 -71.074219 38.414062 -70.492188 L 41.253906 -65.171875 C 40.75 -65.121094 40.042969 -64.539062 39.035156 -64.433594 L 41.421875 -58.558594 L 42.9375 -58.714844 C 43.726562 -55.992188 45.699219 -54.152344 48.25 -54.160156 C 49.257812 -54.265625 50.292969 -54.113281 51.152344 -53.183594 L 50.300781 -51.566406 C 52.597656 -51.546875 54.390625 -51.476562 56.460938 -51.175781 C 55.632812 -49.308594 53.691406 -48.34375 53.417969 -46.019531 L 56.265625 -48.097656 C 57.152344 -46.914062 56.496094 -45.828125 55.566406 -44.964844 L 52.421875 -40.820312 C 51.289062 -39.429688 50.410156 -38.0625 49.554688 -36.445312 C 51.140625 -38.394531 52.976562 -40.367188 54.539062 -42.566406 C 55.015625 -42.871094 55.496094 -43.175781 56 -43.226562 C 52.027344 -37.207031 48.027344 -31.445312 42.917969 -26.585938 C 43.492188 -28.429688 44.625 -29.820312 45.558594 -30.679688 C 47.140625 -32.628906 49.03125 -34.097656 49.554688 -36.445312 C 49.078125 -36.140625 48.597656 -35.835938 48.144531 -35.28125 L 35.410156 -20.207031 C 33.773438 -18.761719 32.414062 -17.09375 31.003906 -15.929688 L 29.289062 -15.242188 L 29.238281 -15.746094 C 30.144531 -16.859375 30.746094 -18.453125 31.625 -19.816406 C 31.601562 -20.070312 31.347656 -20.042969 31.320312 -20.296875 C 29.710938 -18.601562 28.300781 -17.4375 26.941406 -15.765625 C 25.332031 -14.070312 23.414062 -12.855469 21.421875 -12.394531 L 20.535156 -13.582031 C 20.058594 -13.277344 19.628906 -12.46875 19.351562 -12.695312 C 17.558594 -12.765625 15.917969 -13.871094 14.246094 -15.230469 C 15.179688 -16.089844 15.65625 -16.394531 16.390625 -16.726562 C 14.015625 -17.5 11.867188 -18.554688 9.972656 -19.636719 C 8.882812 -20.289062 7.972656 -21.726562 7.3125 -23.1875 C 5.757812 -28.382812 5.746094 -33.484375 6.414062 -39.414062 L 8.527344 -51.105469 L 11.652344 -62.902344 C 13.800781 -71.792969 17.488281 -80.585938 19.613281 -89.726562 L 21.664062 -97.078125 C 22.414062 -99.703125 22.632812 -102.53125 23.941406 -104.707031 C 26.425781 -110.316406 29.46875 -115.472656 32.457031 -121.132812 C 33.082031 -122.472656 34.214844 -123.863281 34.566406 -125.429688 C 35.34375 -127.804688 36.648438 -129.976562 38.234375 -131.925781 C 47.972656 -143.886719 64.566406 -148.648438 66.957031 -132.832031 C 66.632812 -131.011719 66.8125 -129.246094 66.742188 -127.453125 L 65.917969 -113.089844 C 65.707031 -107.714844 65.265625 -102.058594 64.800781 -96.65625 C 64.632812 -93.324219 66.074219 -91.6875 68.675781 -91.1875 C 71.859375 -89.984375 74.992188 -89.285156 78.347656 -88.867188 C 80.722656 -88.089844 82.742188 -88.296875 84.832031 -90.296875 C 87.148438 -92.574219 89.488281 -94.597656 91.554688 -96.851562 C 92.460938 -97.960938 93.566406 -99.605469 93.941406 -100.917969 C 95.09375 -104.605469 96.523438 -108.070312 97.144531 -111.957031 C 98.140625 -117.160156 99.085938 -122.867188 98.011719 -128.367188 C 97.476562 -131.117188 96.9375 -133.863281 96.679688 -136.386719 C 96.648438 -139.191406 96.363281 -141.964844 93.960938 -142.996094 L 93.101562 -143.925781 C 91.503906 -147.078125 89.023438 -148.863281 86.546875 -150.648438 C 82.625 -154.070312 78.050781 -156.40625 73.957031 -159.046875 C 73.097656 -159.980469 72.007812 -160.632812 70.695312 -161.007812 C 66.222656 -162.335938 62.03125 -163.433594 56.960938 -163.167969 C 54.914062 -163.214844 52.894531 -163.007812 50.832031 -160.753906 C 48.542969 -158.226562 46.453125 -156.226562 43.527344 -154.90625 C 41.613281 -153.691406 39.417969 -152.699219 37.808594 -151.003906 C 34.28125 -148.09375 30.753906 -145.183594 27.253906 -142.019531 C 26.550781 -141.4375 26.199219 -139.871094 25.519531 -139.035156 C 24.589844 -138.175781 23.351562 -137.792969 22.898438 -137.238281 C 21.289062 -135.542969 19.652344 -134.097656 18.570312 -132.203125 C 17.71875 -130.585938 16.8125 -129.472656 15.652344 -128.335938 Z M 15.058594 -124.195312 C 14.121094 -125.882812 15.53125 -127.046875 15.679688 -128.082031 C 15.984375 -127.601562 16.515625 -127.402344 16.289062 -127.125 Z M 18.550781 -10.570312 C 18.019531 -10.773438 17.488281 -10.972656 16.933594 -11.425781 C 16.90625 -11.679688 16.90625 -11.679688 17.132812 -11.957031 L 18.953125 -11.632812 Z M -18.605469 -42.203125 C -19.695312 -42.859375 -19.519531 -43.640625 -18.585938 -44.5 C -18.511719 -43.746094 -18.683594 -42.960938 -18.605469 -42.203125 Z M -17.535156 -46.648438 C -17.585938 -47.15625 -17.382812 -47.683594 -17.460938 -48.441406 C -17.210938 -48.46875 -16.957031 -48.492188 -16.929688 -48.242188 C -16.878906 -47.738281 -17.082031 -47.207031 -17.28125 -46.675781 Z M -17.535156 -46.648438 "/></g></g></g><g fill="#ffffff" fill-opacity="1"><g transform="translate(38.914143, 289.771622)"><g><path d="M 16.546875 0 L 3.265625 0 L 3.265625 -23.796875 L 16.546875 -23.796875 L 16.546875 -21.34375 L 6.046875 -21.34375 L 6.046875 -13.671875 L 15.90625 -13.671875 L 15.90625 -11.234375 L 6.046875 -11.234375 L 6.046875 -2.46875 L 16.546875 -2.46875 Z M 16.546875 0 "/></g></g></g><g fill="#ffffff" fill-opacity="1"><g transform="translate(73.117586, 289.771622)"><g><path d="M 1.375 -7.703125 L 1.375 -10.171875 L 9.359375 -10.171875 L 9.359375 -7.703125 Z M 1.375 -7.703125 "/></g></g></g><g fill="#ffffff" fill-opacity="1"><g transform="translate(99.51216, 289.771622)"><g><path d="M 16.703125 -6.328125 C 16.703125 -4.234375 15.941406 -2.597656 14.421875 -1.421875 C 12.898438 -0.253906 10.835938 0.328125 8.234375 0.328125 C 5.410156 0.328125 3.238281 -0.0351562 1.71875 -0.765625 L 1.71875 -3.4375 C 2.695312 -3.019531 3.757812 -2.691406 4.90625 -2.453125 C 6.0625 -2.210938 7.207031 -2.09375 8.34375 -2.09375 C 10.1875 -2.09375 11.570312 -2.441406 12.5 -3.140625 C 13.4375 -3.847656 13.90625 -4.828125 13.90625 -6.078125 C 13.90625 -6.898438 13.738281 -7.570312 13.40625 -8.09375 C 13.070312 -8.625 12.515625 -9.109375 11.734375 -9.546875 C 10.960938 -9.992188 9.785156 -10.503906 8.203125 -11.078125 C 5.992188 -11.867188 4.410156 -12.804688 3.453125 -13.890625 C 2.503906 -14.972656 2.03125 -16.390625 2.03125 -18.140625 C 2.03125 -19.972656 2.71875 -21.429688 4.09375 -22.515625 C 5.476562 -23.597656 7.304688 -24.140625 9.578125 -24.140625 C 11.941406 -24.140625 14.117188 -23.707031 16.109375 -22.84375 L 15.234375 -20.4375 C 13.273438 -21.257812 11.367188 -21.671875 9.515625 -21.671875 C 8.046875 -21.671875 6.894531 -21.351562 6.0625 -20.71875 C 5.238281 -20.09375 4.828125 -19.222656 4.828125 -18.109375 C 4.828125 -17.285156 4.976562 -16.609375 5.28125 -16.078125 C 5.59375 -15.546875 6.109375 -15.0625 6.828125 -14.625 C 7.546875 -14.1875 8.648438 -13.703125 10.140625 -13.171875 C 12.640625 -12.285156 14.359375 -11.332031 15.296875 -10.3125 C 16.234375 -9.289062 16.703125 -7.960938 16.703125 -6.328125 Z M 16.703125 -6.328125 "/></g></g></g><g fill="#ffffff" fill-opacity="1"><g transform="translate(133.471573, 289.771622)"><g><path d="M 18.359375 -16.875 C 18.359375 -14.457031 17.535156 -12.597656 15.890625 -11.296875 C 14.253906 -10.003906 11.90625 -9.359375 8.84375 -9.359375 L 6.046875 -9.359375 L 6.046875 0 L 3.265625 0 L 3.265625 -23.796875 L 9.4375 -23.796875 C 15.382812 -23.796875 18.359375 -21.488281 18.359375 -16.875 Z M 6.046875 -11.734375 L 8.53125 -11.734375 C 10.976562 -11.734375 12.75 -12.128906 13.84375 -12.921875 C 14.945312 -13.710938 15.5 -14.984375 15.5 -16.734375 C 15.5 -18.304688 14.984375 -19.476562 13.953125 -20.25 C 12.921875 -21.019531 11.316406 -21.40625 9.140625 -21.40625 L 6.046875 -21.40625 Z M 6.046875 -11.734375 "/></g></g></g><g fill="#ffffff" fill-opacity="1"><g transform="translate(169.204257, 289.771622)"><g><path d="M 23.9375 -11.9375 C 23.9375 -8.125 22.972656 -5.125 21.046875 -2.9375 C 19.117188 -0.757812 16.441406 0.328125 13.015625 0.328125 C 9.503906 0.328125 6.796875 -0.742188 4.890625 -2.890625 C 2.984375 -5.035156 2.03125 -8.0625 2.03125 -11.96875 C 2.03125 -15.84375 2.984375 -18.84375 4.890625 -20.96875 C 6.804688 -23.101562 9.523438 -24.171875 13.046875 -24.171875 C 16.460938 -24.171875 19.128906 -23.085938 21.046875 -20.921875 C 22.972656 -18.753906 23.9375 -15.757812 23.9375 -11.9375 Z M 4.96875 -11.9375 C 4.96875 -8.707031 5.648438 -6.257812 7.015625 -4.59375 C 8.390625 -2.925781 10.390625 -2.09375 13.015625 -2.09375 C 15.648438 -2.09375 17.640625 -2.921875 18.984375 -4.578125 C 20.328125 -6.242188 21 -8.695312 21 -11.9375 C 21 -15.132812 20.328125 -17.5625 18.984375 -19.21875 C 17.648438 -20.875 15.671875 -21.703125 13.046875 -21.703125 C 10.398438 -21.703125 8.390625 -20.867188 7.015625 -19.203125 C 5.648438 -17.535156 4.96875 -15.113281 4.96875 -11.9375 Z M 4.96875 -11.9375 "/></g></g></g><g fill="#ffffff" fill-opacity="1"><g transform="translate(210.82613, 289.771622)"><g><path d="M 6.046875 -9.90625 L 6.046875 0 L 3.265625 0 L 3.265625 -23.796875 L 9.796875 -23.796875 C 12.722656 -23.796875 14.878906 -23.238281 16.265625 -22.125 C 17.660156 -21.007812 18.359375 -19.328125 18.359375 -17.078125 C 18.359375 -13.929688 16.765625 -11.804688 13.578125 -10.703125 L 20.046875 0 L 16.765625 0 L 11 -9.90625 Z M 6.046875 -12.28125 L 9.828125 -12.28125 C 11.785156 -12.28125 13.21875 -12.664062 14.125 -13.4375 C 15.039062 -14.21875 15.5 -15.382812 15.5 -16.9375 C 15.5 -18.507812 15.035156 -19.640625 14.109375 -20.328125 C 13.179688 -21.023438 11.691406 -21.375 9.640625 -21.375 L 6.046875 -21.375 Z M 6.046875 -12.28125 "/></g></g></g><g fill="#ffffff" fill-opacity="1"><g transform="translate(247.095662, 289.771622)"><g><path d="M 10.59375 0 L 7.828125 0 L 7.828125 -21.34375 L 0.296875 -21.34375 L 0.296875 -23.796875 L 18.140625 -23.796875 L 18.140625 -21.34375 L 10.59375 -21.34375 Z M 10.59375 0 "/></g></g></g><g fill="#ffffff" fill-opacity="1"><g transform="translate(281.201498, 289.771622)"><g/></g></g><g fill="#ffffff" fill-opacity="1"><g transform="translate(305.529977, 289.771622)"><g><path d="M 3.265625 0 L 3.265625 -23.796875 L 6.046875 -23.796875 L 6.046875 0 Z M 3.265625 0 "/></g></g></g><g fill="#ffffff" fill-opacity="1"><g transform="translate(330.492927, 289.771622)"><g><path d="M 22.265625 -12.125 C 22.265625 -8.195312 21.195312 -5.191406 19.0625 -3.109375 C 16.9375 -1.035156 13.867188 0 9.859375 0 L 3.265625 0 L 3.265625 -23.796875 L 10.5625 -23.796875 C 14.269531 -23.796875 17.144531 -22.769531 19.1875 -20.71875 C 21.238281 -18.675781 22.265625 -15.8125 22.265625 -12.125 Z M 19.34375 -12.03125 C 19.34375 -15.132812 18.5625 -17.472656 17 -19.046875 C 15.445312 -20.617188 13.132812 -21.40625 10.0625 -21.40625 L 6.046875 -21.40625 L 6.046875 -2.390625 L 9.40625 -2.390625 C 12.707031 -2.390625 15.1875 -3.203125 16.84375 -4.828125 C 18.507812 -6.453125 19.34375 -8.851562 19.34375 -12.03125 Z M 19.34375 -12.03125 "/></g></g></g></svg>